<svg width="162" height="32" viewBox="0 0 162 32" fill="none" xmlns="http://www.w3.org/2000/svg">
<g clip-path="url(#clip0_878_8)">
<path d="M113.579 17.5147C115.037 16.7728 115.887 15.3409 115.887 13.6845C115.887 10.8186 113.895 8.88999 110.42 8.88999H102.427V26.8086H110.639C114.649 26.8086 116.47 24.5101 116.47 21.7917C116.47 19.8133 115.449 18.159 113.579 17.5168V17.5147ZM105.612 11.5065H110.01C111.637 11.5065 112.585 12.3731 112.585 13.9048C112.585 15.4365 111.71 16.4506 109.716 16.4506H105.612V11.5065ZM110.081 24.163L105.612 24.1609C105.612 24.1609 105.612 23.8534 105.612 23.471V18.8739C105.612 18.8739 105.914 18.8739 106.289 18.8739H110.179C111.952 18.8739 113.095 19.7405 113.095 21.5195C113.095 23.0782 112.122 24.1651 110.083 24.1651L110.081 24.163Z" fill="white"/>
<path d="M117.222 14.6883C117.222 14.6883 117.222 14.68 117.222 14.6737C117.301 16.2054 118.543 17.4316 120.085 17.4919L120.112 17.5209C118.533 17.5667 117.264 18.8386 117.222 20.4139C117.222 20.4076 117.222 20.4014 117.222 20.3952V26.8065H120.282V8.88791H117.222V14.6883Z" fill="white"/>
<path d="M127.972 13.8882C123.866 13.8882 121.23 16.5296 121.23 20.4575C121.23 24.3854 123.864 27.0497 127.972 27.0497C132.08 27.0497 134.713 24.4083 134.713 20.4575C134.713 16.5068 132.08 13.8882 127.972 13.8882ZM127.997 24.4083C125.688 24.4083 124.366 22.9285 124.366 20.4824C124.366 18.0364 125.641 16.5068 128.022 16.5068C130.403 16.5068 131.603 18.0093 131.603 20.4575C131.603 22.9057 130.355 24.4083 127.997 24.4083Z" fill="white"/>
<path d="M142.048 24.4083C139.861 24.4083 138.661 22.8807 138.661 20.4824C138.661 18.0842 139.788 16.5317 142.023 16.5317C143.577 16.5317 144.681 17.284 145.094 18.5912H148.204C147.766 15.7794 145.425 13.8903 142.023 13.8903C138.086 13.8903 135.525 16.5068 135.527 20.4596C135.527 24.4103 138.09 27.0518 142.073 27.0518C145.427 27.0518 147.746 25.2105 148.206 22.3487H145.096C144.683 23.6081 143.7 24.4083 142.048 24.4083Z" fill="white"/>
<path d="M156.639 19.1981L161.741 14.1313H157.951L152.218 19.6574V8.88791H149.156V26.8065H152.218V23.5832L154.476 21.4031L158.935 26.7899H162.482L156.639 19.1981Z" fill="white"/>
<path d="M97.842 21.9746L97.8045 22.0889C97.4045 23.3068 96.4545 24.0342 94.915 24.0342C92.8006 24.0342 91.6944 22.5939 91.6944 20.2746C91.6944 17.9553 92.7902 16.4901 94.8921 16.4901C96.44 16.4901 97.4274 17.2341 97.8066 18.4354L97.8441 18.5518H101.271L101.242 18.3606C100.792 15.4635 98.3649 13.5182 94.8963 13.5182C90.8507 13.5182 88.2321 16.2865 88.2321 20.2518C88.2321 24.2171 90.8048 27.0102 94.9442 27.0102C98.4211 27.0102 100.767 25.1086 101.242 22.1679L101.273 21.9746H97.842Z" fill="white"/>
<path d="M83.4594 26.8419H86.8238V13.5619H83.4948L83.4594 26.8419Z" fill="white"/>
<path d="M44.8219 22.4568L39.2826 8.91493H35.012V26.8024H38.5764V21.9497C38.5764 19.6802 38.5201 17.2965 38.4243 14.2643L43.5948 26.659H46.028L51.1403 14.3038C51.0299 16.964 50.9715 19.5348 50.9715 21.9497V26.8024H54.513V8.91285H50.3132L44.8198 22.4568H44.8219Z" fill="white"/>
<path d="M61.946 13.5141C59.9002 13.5141 58.2774 14.069 57.2483 15.1227C56.4442 15.9456 56.0359 17.0575 56.0692 18.3377L56.0733 18.4998H59.2253L59.219 18.3294C59.1982 17.7516 59.3607 17.2819 59.6982 16.9328C60.1169 16.5005 60.8023 16.2719 61.6772 16.2719C63.2855 16.2719 64.2063 16.9889 64.2063 18.24V18.6494L59.9315 19.117C57.2191 19.4205 55.7255 20.8482 55.7255 23.1364C55.7255 25.4245 57.4212 27.0102 60.0461 27.0102C61.9543 27.0102 63.6021 26.233 64.4333 24.986C64.4542 24.9548 64.4896 24.9361 64.5292 24.9403L64.5104 25.1689C64.5042 25.1336 64.3937 26.7899 64.3937 26.7899L67.5998 26.7775V18.3356C67.5998 17.7246 67.5165 17.1676 67.3561 16.6647C66.7145 14.6447 64.8229 13.5162 61.9439 13.5162L61.946 13.5141ZM60.9981 24.3002C59.7732 24.3002 59.0982 23.7391 59.0982 22.7207C59.0982 21.8042 59.6627 21.2888 60.8252 21.1412L64.1521 20.7111C64.5229 22.7415 63.0792 24.3002 60.9981 24.3002Z" fill="white"/>
<path d="M85.1968 8.19794C85.1281 9.51139 84.0656 10.5609 82.7449 10.6108L82.7219 10.6357C84.074 10.6752 85.1593 11.7642 85.1968 13.113C85.2322 11.7621 86.3197 10.6752 87.6717 10.6357L87.6488 10.6108C86.328 10.5609 85.2656 9.50931 85.1968 8.19794Z" fill="white"/>
<path d="M79.1284 15.4365C78.5305 14.3017 77.1951 13.4226 75.0348 13.4226C71.2267 13.4226 68.6394 16.4569 68.6394 20.1416C68.6394 24.0259 71.3392 26.8606 75.0348 26.8606C77.0535 26.8606 78.4451 25.9254 79.043 24.8468V25.0463C79.043 27.854 77.7347 29.1861 75.1203 29.1861C73.5349 29.1861 72.3454 28.2987 71.86 27.0206H68.6144C68.9935 29.7909 71.5475 32.05 75.2057 32.05C80.4075 32.05 82.3115 28.6188 82.3115 24.934V13.6803H79.1284V15.4385V15.4365ZM75.5765 24.057C73.4162 24.057 71.9663 22.5545 71.9663 20.1437C71.9663 17.7329 73.4724 16.2595 75.5765 16.2595C77.6805 16.2595 79.1284 17.7911 79.1284 20.1437C79.1284 22.4963 77.6785 24.057 75.5765 24.057Z" fill="white"/>
<path d="M5.30943 21.4314C5.61256 21.4797 5.93179 21.5186 6.26578 21.5508C5.93179 21.5199 5.61256 21.4797 5.30943 21.4314Z" fill="white"/>
<path d="M8.05507 9.70891C8.27906 10.2925 8.7056 10.6964 9.2287 10.9191C9.59622 11.0748 10.012 11.068 10.3836 10.9218C11.804 10.365 13.317 9.8632 14.889 9.4352C16.7534 8.92669 18.6004 8.54699 20.3628 8.3028L8.69084 3.10371C7.87131 2.74816 6.95654 3.35058 6.95923 4.24416L6.98069 12.4272C7.87399 11.8529 8.34076 10.7688 8.05641 9.70891H8.05507Z" fill="white"/>
<path d="M31.4071 11.2009C31.0758 9.98395 29.2073 9.1682 26.2806 8.96024C24.9876 8.869 23.5511 8.89986 22.026 9.04342C19.8598 9.2487 17.5152 9.68207 15.1331 10.3315C13.718 10.7179 12.3539 11.1633 11.0649 11.6544C10.8745 11.7268 10.6867 11.7993 10.5003 11.8744C10.1944 11.9952 9.93154 12.2098 9.76388 12.4916C9.45404 13.0149 9.3521 13.6441 9.54391 14.2895C9.44331 14.0064 9.30516 13.7783 9.1375 13.5998C8.67475 13.1061 7.92362 13.0108 7.32406 13.3248C6.416 13.7998 5.57903 14.2962 4.83461 14.8101C3.70658 15.5869 2.50746 16.5234 1.84217 17.7524C1.63025 18.1455 1.47198 18.591 1.50417 19.0431C1.54843 19.6616 1.9468 20.087 2.43235 20.4318C2.69256 20.6169 2.97423 20.7726 3.26932 20.8947C4.20018 21.2811 5.26114 21.4582 6.26712 21.5508V18.9666C6.26712 18.7144 6.45624 18.489 6.70706 18.4769C6.97532 18.4635 7.19664 18.6755 7.19664 18.9412C7.19664 18.9412 7.19664 21.9747 7.19664 21.9734V25.3115C7.19664 25.8885 7.50648 26.4278 8.00544 26.7177L14.2183 30.3309C14.4678 30.4758 14.7522 30.5509 15.0379 30.5509C15.2471 30.5509 15.4564 30.5106 15.6535 30.4301L24.7556 26.6989C25.3685 26.448 25.7656 25.8563 25.7656 25.1935V17.1486L25.8675 17.1003C29.7197 15.0435 31.8416 12.7881 31.4084 11.2009H31.4071ZM19.263 20.4573C19.263 21.4059 18.9612 21.9573 18.426 21.9573C17.8908 21.9573 17.5367 21.4474 17.5367 20.2855V18.438C17.5367 17.4894 17.8385 16.938 18.3737 16.938C18.9089 16.938 19.263 17.4478 19.263 18.6098V20.4573ZM22.9918 19.5288C22.9918 20.4774 22.69 21.0288 22.1548 21.0288C21.6196 21.0288 21.2655 20.519 21.2655 19.3571V17.5096C21.2655 16.561 21.5673 16.0095 22.1025 16.0095C22.6377 16.0095 22.9918 16.5194 22.9918 17.6813V19.5288Z" fill="white"/>
</g>
<defs>
<clipPath id="clip0_878_8">
<rect width="162" height="32" fill="white"/>
</clipPath>
</defs>
</svg>
